<?xml version="1.0" encoding="UTF-8" standalone="no"?>
<svg
   xmlns:svg="http://www.w3.org/2000/svg"
   xmlns="http://www.w3.org/2000/svg"
   xmlns:xlink="http://www.w3.org/1999/xlink"
   version="1.0"
   width="986"
   height="257"
   id="svg2">
  <defs
     id="defs15" />
  <circle
     cx="9.124"
     cy="46.904"
     r="9.124"
     transform="matrix(2.7337162,0,0,2.7337162,0.304685,0.2982769)"
     id="circle4"
     style="fill:#ff6309" />
  <circle
     cx="74.548"
     cy="84.667"
     r="9.124"
     transform="matrix(2.7337162,0,0,2.7337162,0.304685,0.2982769)"
     id="circle6"
     style="fill:#ffb515" />
  <path
     d="M 144.47815,66.801391 C 175.53589,66.801391 201.30391,89.863021 205.57123,119.76167 L 248.30468,119.76167 C 246.36375,96.268116 236.62352,74.371051 220.33877,57.102167 C 209.90964,62.413777 197.08578,62.514925 186.19192,56.227377 C 175.28986,49.931629 168.96404,38.767132 168.35715,27.066827 C 160.618,25.262574 152.62188,24.327643 144.47815,24.327643 C 128.88503,24.327643 113.81679,27.731119 100.11266,34.185424 L 121.50673,71.240947 C 128.61165,68.38148 136.36448,66.801391 144.47815,66.801391 L 144.47815,66.801391 z"
     id="path19"
     style="fill:#ff6309" />
  <path
     d="M 205.57397,137.252 C 201.31757,167.16158 175.54409,190.23689 144.47815,190.23689 C 136.359,190.23689 128.60345,188.6568 121.49853,185.79186 L 100.10173,222.85012 C 113.80311,229.30716 128.87683,232.71336 144.47541,232.71336 C 152.62462,232.71336 160.63168,231.77296 168.37356,229.96871 C 168.96951,218.25474 175.29806,207.0711 186.20832,200.77262 C 197.10492,194.47961 209.93424,194.58076 220.36611,199.9033 C 236.63719,182.63169 246.36648,160.73735 248.30195,137.252 L 205.57397,137.25199 L 205.57397,137.25199 z"
     id="path21"
     style="fill:#c90016" />
  <path
     d="M 82.761768,128.5205 C 82.761768,108.85688 92.004461,91.314626 106.37014,80.005237 L 84.981542,42.955185 C 79.965173,46.45981 75.219447,50.426432 70.799026,54.844117 C 58.420758,67.222384 49.544382,82.167607 44.659231,98.479697 C 54.500609,104.85472 61.017788,115.92081 61.017788,128.5205 C 61.017788,141.11747 54.500609,152.18628 44.659231,158.55858 C 49.544382,174.87067 58.420758,189.81589 70.799026,202.19415 C 75.216713,206.61184 79.956972,210.573 84.970608,214.08036 L 106.36194,177.02757 C 91.998994,165.71818 82.761768,148.17592 82.761768,128.5205 z"
     id="path10"
     style="fill:#ffb515" />
  <circle
     cx="74.54"
     cy="9.1260004"
     r="9.124"
     transform="matrix(2.7337162,0,0,2.7337162,0.304685,0.2982769)"
     id="circle12"
     style="fill:#c90016" />
  <path
     d="M 403.78567,128.11265 L 403.78567,80.105111 C 403.78567,72.83125 397.96658,67.01215 390.69271,67.01215 C 383.41885,67.01215 377.59974,72.83125 377.59974,80.105111 L 377.59974,128.11265 C 377.59974,145.56992 370.32586,151.38904 357.2329,151.38904 C 344.13995,151.38904 336.86607,145.56992 336.86607,128.11265 L 336.86607,80.105111 C 336.86607,72.83125 331.04697,67.01215 323.7731,67.01215 C 316.49925,67.01215 310.68015,72.83125 310.68015,80.105111 L 310.68015,128.11265 C 310.68015,163.02719 331.04701,177.57497 357.2329,177.57497 C 383.41881,177.57497 403.78567,163.02719 403.78567,128.11265"
     id="u" />
  <path
     d="M 525.98668,128.11265 C 525.98668,78.65039 505.61982,67.01215 479.43393,67.01215 C 466.34096,67.01215 459.06709,72.83124 459.06709,72.83124 L 459.06709,39.37144 C 459.06709,21.91416 432.88115,21.91416 432.88115,39.37144 L 432.88115,128.11265 C 432.88115,163.02719 453.24801,177.57497 479.43393,177.57497 C 505.61982,177.57497 525.98668,163.02719 525.98668,128.11265 M 459.06709,125.20311 C 459.06709,94.652878 473.61483,91.743298 479.43393,91.743298 C 488.16256,91.743298 499.80075,99.017198 499.80075,125.20311 C 499.80075,142.66038 492.52687,154.29859 479.43393,154.29859 C 466.34096,154.29859 459.06709,142.66038 459.06709,125.20311"
     id="b" />
  <use
     transform="translate(244.40203,5.0000006e-7)"
     id="u2"
     xlink:href="#u" />
  <use
     transform="matrix(-1,0,0,-1,1081.0689,244.58712)"
     id="n"
     xlink:href="#u" />
  <path
     d="M 808.21283,67.012145 C 792.21033,67.012145 792.21033,90.288525 808.21283,90.288525 L 812.57716,90.288525 L 812.57716,140.91465 C 812.57716,168.55533 819.41462,177.57496 842.98193,177.57496 C 854.32916,177.57496 870.91359,175.53826 870.91359,163.90008 C 870.91359,156.62622 864.22163,154.73501 862.33042,154.73501 C 858.25706,154.73501 854.0382,156.48074 849.38293,156.48074 C 841.23621,156.48074 838.76308,152.40736 838.76308,138.73249 L 838.76308,90.288525 L 850.40127,90.288525 C 866.40377,90.288525 866.40377,67.012145 850.40127,67.012145 L 838.76308,67.012145 L 838.76308,39.371435 C 838.76308,21.914155 812.57716,21.914155 812.57716,39.371435 L 812.57716,67.012145 L 808.21283,67.012145"
     id="t" />
  <use
     transform="translate(581.90962,5.0000006e-7)"
     id="u3"
     xlink:href="#u" />
</svg>